<svg width="46" height="46" viewBox="0 0 46 46" fill="none" xmlns="http://www.w3.org/2000/svg">
<g clip-path="url(#clip0_137_286)">
<rect width="46" height="46" rx="23" fill="white"/>
<circle cx="23" cy="23" r="23" fill="white"/>
<path d="M24.9199 11C24.2572 11 23.7199 11.5373 23.7199 12.2C23.7199 12.8627 24.2572 13.4 24.9199 13.4H30.92C31.8478 13.4 32.6 14.1522 32.6 15.08L32.6 30.92C32.6 31.8478 31.8478 32.6 30.92 32.6H24.2C23.5372 32.6 23 33.1373 23 33.8C23 34.4627 23.5372 35 24.2 35H30.92C33.1733 35 35 33.1733 35 30.92L35 15.08C35 12.8267 33.1733 11 30.92 11H24.9199Z" fill="#E9BF12"/>
<path d="M23.3515 17.3515C23.8201 16.8828 24.5799 16.8828 25.0485 17.3515L29.8485 22.1515C30.3172 22.6201 30.3172 23.3799 29.8485 23.8485L25.0485 28.6485C24.5799 29.1172 23.8201 29.1172 23.3515 28.6485C22.8828 28.1799 22.8828 27.4201 23.3515 26.9515L26.1029 24.2H12.2C11.5373 24.2 11 23.6627 11 23C11 22.3373 11.5373 21.8 12.2 21.8H26.1029L23.3515 19.0485C22.8828 18.5799 22.8828 17.8201 23.3515 17.3515Z" fill="#E9BF12"/>
</g>
<defs>
<clipPath id="clip0_137_286">
<rect width="46" height="46" rx="23" fill="white"/>
</clipPath>
</defs>
</svg>
