<svg width="46" height="47" viewBox="0 0 46 47" fill="none" xmlns="http://www.w3.org/2000/svg">
<rect width="46" height="47" rx="23" fill="white"/>
<circle cx="23" cy="23" r="23" fill="white"/>
<path d="M30.3051 35C31.7458 35 32.9138 33.779 32.9138 32.2727C32.9138 30.7665 31.7458 29.5455 30.3051 29.5455C28.8643 29.5455 27.6963 30.7665 27.6963 32.2727C27.6963 33.779 28.8643 35 30.3051 35Z" fill="#E9BF12"/>
<path d="M19.8698 35C21.3105 35 22.4785 33.779 22.4785 32.2727C22.4785 30.7665 21.3105 29.5455 19.8698 29.5455C18.429 29.5455 17.261 30.7665 17.261 32.2727C17.261 33.779 18.429 35 19.8698 35Z" fill="#E9BF12"/>
<path d="M32.3919 28.4545H20.3488C18.6145 28.4545 17.1077 27.164 16.7675 25.3858L14.2244 12.0909H11.5218C11.2337 12.0909 11 11.8465 11 11.5455C11 11.2444 11.2337 11 11.5218 11H14.6523C14.9006 11 15.1146 11.1833 15.1636 11.4385L17.7912 25.1709C18.0343 26.4418 19.1101 27.3636 20.3488 27.3636H32.3919C32.6799 27.3636 32.9137 27.608 32.9137 27.9091C32.9137 28.2102 32.6799 28.4545 32.3919 28.4545Z" fill="#E9BF12"/>
<path d="M34.8703 14.4571C34.7712 14.3404 34.6292 14.2727 34.479 14.2727H15.6958C15.4078 14.2727 15.1741 14.5171 15.1741 14.8182C15.1741 15.1193 15.4078 15.3636 15.6958 15.3636H15.8002L17.6816 25.1982C17.4145 25.2549 17.2287 25.5135 17.2653 25.7993C17.3007 26.0731 17.5241 26.2727 17.7818 26.2727C17.8048 26.2727 17.8277 26.2716 17.8507 26.2684L33.5033 24.0866C33.7391 24.0538 33.9228 23.8596 33.952 23.6131L34.9955 14.8858C35.0153 14.7309 34.9694 14.5738 34.8703 14.4571ZM19.9554 24.0833C19.9262 24.0887 19.898 24.0909 19.8688 24.0909C19.6184 24.0909 19.3971 23.9022 19.3544 23.6349L18.3109 17.0895C18.2639 16.7927 18.4559 16.5113 18.7408 16.4622C19.0246 16.4109 19.2938 16.6138 19.3408 16.9106L20.3843 23.456C20.4323 23.7527 20.2393 24.0342 19.9554 24.0833ZM22.5256 23.5433C22.5099 23.5455 22.4943 23.5455 22.4776 23.5455C22.2104 23.5455 21.983 23.3327 21.9579 23.0491L21.4362 17.0491C21.4101 16.7491 21.6219 16.4829 21.9089 16.4567C22.2042 16.4273 22.4494 16.6509 22.4755 16.9509L22.9973 22.9509C23.0244 23.2509 22.8126 23.516 22.5256 23.5433ZM25.6092 22.4546C25.6092 22.7556 25.3754 23 25.0874 23C24.7994 23 24.5656 22.7556 24.5656 22.4546V17C24.5656 16.6989 24.7994 16.4546 25.0874 16.4546C25.3754 16.4546 25.6092 16.6989 25.6092 17V22.4546ZM28.2148 21.9691C28.1856 22.2484 27.9591 22.4546 27.6962 22.4546C27.6763 22.4546 27.6576 22.4535 27.6377 22.4513C27.3518 22.4175 27.1452 22.148 27.1765 21.8491L27.6983 16.94C27.7306 16.6411 27.9988 16.4295 28.2743 16.4578C28.5602 16.4916 28.7668 16.7611 28.7355 17.06L28.2148 21.9691ZM31.8546 17.132L30.811 21.4956C30.7516 21.7444 30.5397 21.9091 30.3049 21.9091C30.2632 21.9091 30.2204 21.9036 30.1776 21.8927C29.898 21.8196 29.7279 21.524 29.7978 21.2316L30.8413 16.868C30.9112 16.5746 31.1919 16.3956 31.4737 16.4709C31.7544 16.544 31.9245 16.8407 31.8546 17.132Z" fill="#E9BF12"/>
</svg>
